<?xml version="1.0" encoding="UTF-8"?>
<svg id="Ebene_1" xmlns="http://www.w3.org/2000/svg" xmlns:xlink="http://www.w3.org/1999/xlink" version="1.1" viewBox="516 285 316 316">
  <!-- Generator: Adobe Illustrator 29.2.1, SVG Export Plug-In . SVG Version: 2.1.0 Build 116)  -->
  <defs>
    <style>
      .st0, .st1 {
        fill: none;
      }

      .st2 {
        fill: #8dbfb7;
      }

      .st3 {
        fill: url(#Unbenannter_Verlauf_2);
      }

      .st4 {
        fill: url(#Unbenannter_Verlauf_4);
      }

      .st5 {
        clip-path: url(#clippath-1);
      }

      .st6 {
        clip-path: url(#clippath-3);
      }

      .st7 {
        clip-path: url(#clippath-2);
      }

      .st1 {
        stroke: #5a7d9a;
        stroke-miterlimit: 10;
        stroke-width: 3px;
      }

      .st8 {
        fill: #5a7d9a;
      }

      .st9 {
        clip-path: url(#clippath);
      }

      .st10 {
        fill: #0d2b45;
      }
    </style>
    <clipPath id="clippath">
      <path class="st0" d="M535.8,423.3l9.5-3.8,3.1-3.3c18-11.7,28.9-10.7,47-4.9,67.4,24.1,77.1,166.6,174.9,131.2-71.4,22.3-95.6-63.2-128-107.9-15.1-21.7-38.6-35.9-61.5-35.9s-32.6,7.4-45,24.7h0Z"/>
    </clipPath>
    <linearGradient id="Unbenannter_Verlauf_4" data-name="Unbenannter Verlauf 4" x1="415.4" y1="-277.8" x2="416.4" y2="-277.8" gradientTransform="translate(-84196.1 -126526.7) rotate(90) scale(305.4)" gradientUnits="userSpaceOnUse">
      <stop offset="0" stop-color="#5a7d9a"/>
      <stop offset="0" stop-color="#5a7d9a"/>
      <stop offset=".5" stop-color="#5a7d9a"/>
      <stop offset=".5" stop-color="#5f839d"/>
      <stop offset=".6" stop-color="#7099a6"/>
      <stop offset=".6" stop-color="#7daaae"/>
      <stop offset=".6" stop-color="#86b6b3"/>
      <stop offset=".6" stop-color="#8bbdb6"/>
      <stop offset=".6" stop-color="#8dbfb7"/>
      <stop offset=".6" stop-color="#8dbfb7"/>
      <stop offset="1" stop-color="#8dbfb7"/>
    </linearGradient>
    <clipPath id="clippath-1">
      <rect class="st0" y="0" width="1402" height="1122"/>
    </clipPath>
    <clipPath id="clippath-2">
      <path class="st0" d="M548.3,416.2l-12.6,7.1c-22.1,19.6-16.5,53.2-10.1,64.9-3.3-15.6-3.6-30.2,2.7-44.4,3.3-8.2,8.5-15.7,16.3-19.9,21.7-11.7,44.9.7,58.5,13.5,5.7,3.1,10.8,7.1,15.3,11.4-13-21.2-34.2-35.4-54.9-35.4s-10.3.9-15.3,2.8h0Z"/>
    </clipPath>
    <linearGradient id="Unbenannter_Verlauf_2" data-name="Unbenannter Verlauf 2" x1="413.3" y1="-308.7" x2="414.3" y2="-308.7" gradientTransform="translate(-6770.9 5914.6) scale(17.7)" gradientUnits="userSpaceOnUse">
      <stop offset="0" stop-color="#0d2b45"/>
      <stop offset="0" stop-color="#0d2b45"/>
      <stop offset=".3" stop-color="#2c4c68"/>
      <stop offset=".5" stop-color="#5a7d9a"/>
      <stop offset=".6" stop-color="#5a7d9a"/>
      <stop offset="1" stop-color="#5a7d9a"/>
    </linearGradient>
    <clipPath id="clippath-3">
      <rect class="st0" y="0" width="1402" height="1122"/>
    </clipPath>
  </defs>
  <g class="st9">
    <rect class="st4" x="509.6" y="340.1" width="286.3" height="295.1" transform="translate(-135.2 694.9) rotate(-51.5)"/>
  </g>
  <g class="st5">
    <g>
      <path class="st8" d="M558.5,394.7c-4.2,1.5-7.3,3.7-11.5,6.4,3.9-12.7,18.5-60.3,64.9-83.1,25.3-12.5,43.2-14.9,62.2-15.2,0,0-64.6,5.1-97.1,54.9-9.6,14.7-13.8,23.7-18.4,37"/>
      <path class="st2" d="M777.5,536.6c26.7-29.1,46.5-95.5,29-140.5,22.4,52.5,2.9,126.4-29,140.5"/>
      <path class="st10" d="M763,551.5c-67,22.4-100.7-36.9-133.4-83.3-12-15.7-27.9-31.8-48.7-32.6-48.9-2-53.7,54.2-32.1,88.5,16.1,28,41.8,49.5,72,60.7,34.1,13.1,71.8,11.3,105.3-3.5,7.5-3.3,20.6-11.2,27.3-16.1-5.1,1.2-10.3,2-15.5,2.4-7.4,4.4-38.9,20.6-71.6,19.4-29-1.1-56.8-11.9-79.4-30.2-19.8-17.3-36.1-40.5-40.5-66.7-7.8-42.1,34-59.5,61.7-28.5,26.6,25.6,42,61.2,72.4,83.2,37.5,29.6,93.7,20.4,121.5-18.4-11.9,11.3-24,20.2-39.1,25.4"/>
      <path class="st8" d="M766.3,343.3c-15.8-19.1-38-32.5-62.1-38.3-4.4-.9-8.7-1.7-12.9-1.9,12.5,2.5,24.2,6.1,35.2,11.8,14.5,7.5,27.5,18.4,37.5,31.2,21.9,27.4,30.7,62.4,24.7,96.9-7.3,37.2-19.4,69-47.9,97,5,.9,10,.7,15,0,22.1-27.5,34.3-58,39.5-97.5,4.4-35.7-6.1-71.4-29-99.1"/>
    </g>
  </g>
  <g class="st7">
    <rect class="st3" x="502.9" y="385.6" width="126.2" height="128.9" transform="translate(-145.4 579.5) rotate(-48.8)"/>
  </g>
  <g class="st6">
    <g>
      <path class="st8" d="M483,735.9h10.8c1.7,0,3.3.2,4.8.5s2.9.9,4.1,1.6c1.2.8,2.1,1.8,2.8,3.1.7,1.3,1.1,2.9,1.1,4.7s-.4,3.6-1.1,4.9c-.8,1.3-1.7,2.3-2.9,3.1-1.2.8-2.5,1.3-3.9,1.6s-2.7.5-4,.5h-7.3v16.3h-4.3v-36.3h-.1ZM487.3,751.9h7.3c2.2,0,3.9-.5,5.3-1.5s2-2.5,2-4.5-.7-3.6-2-4.5c-1.4-1-3.1-1.5-5.3-1.5h-7.3v12Z"/>
      <rect class="st8" x="543.7" y="735.9" width="4.3" height="36.3"/>
      <polygon class="st8" points="588.5 735.9 592.8 735.9 592.8 768.2 609.4 768.2 609.4 772.2 588.5 772.2 588.5 735.9"/>
      <path class="st8" d="M659.7,735.9h4.1l15.4,36.3h-5l-3.7-8.9h-18.2l-3.7,8.9h-4.9l16-36.3h0ZM661.6,741.4h0l-7.5,17.9h14.8l-7.2-17.9Z"/>
      <polygon class="st8" points="735.5 739.9 723.5 739.9 723.5 772.2 719.1 772.2 719.1 739.9 707.1 739.9 707.1 735.9 735.5 735.9 735.5 739.9"/>
      <polygon class="st8" points="771.8 735.9 794.6 735.9 794.6 739.9 776.1 739.9 776.1 751.3 793.4 751.3 793.4 755.3 776.1 755.3 776.1 768.2 795.6 768.2 795.6 772.2 771.8 772.2 771.8 735.9"/>
      <path class="st8" d="M851.2,742.3c-.7-1.2-1.7-2-2.9-2.5s-2.4-.8-3.7-.8-1.9,0-2.8.4c-.9.2-1.8.6-2.5,1.1s-1.3,1.1-1.8,1.9c-.4.8-.7,1.7-.7,2.8s0,1.5.4,2.2c.3.6.7,1.2,1.3,1.7s1.4,1,2.4,1.4,2.2.9,3.6,1.3c1.4.4,2.8.9,4.1,1.4s2.5,1.2,3.5,1.9c1,.8,1.8,1.8,2.4,2.9.6,1.2.9,2.7.9,4.4s-.4,3.4-1.1,4.7c-.7,1.3-1.7,2.4-2.8,3.3-1.2.9-2.5,1.5-4.1,2-1.5.4-3.1.6-4.8.6s-2.1,0-3.2-.3c-1.1-.2-2.1-.5-3.1-.9s-1.9-.9-2.7-1.5c-.9-.6-1.6-1.4-2.2-2.3l3.7-3c.8,1.3,1.9,2.3,3.3,3,1.4.7,2.9,1,4.5,1s1.9,0,2.8-.4c.9-.3,1.8-.7,2.5-1.2.8-.5,1.4-1.2,1.8-2,.5-.8.7-1.7.7-2.7s-.2-2-.6-2.7c-.4-.7-1-1.3-1.7-1.8-.8-.5-1.8-1-3-1.4s-2.6-.9-4.2-1.4c-1.3-.4-2.5-.9-3.6-1.4s-2-1.2-2.8-2-1.4-1.7-1.9-2.8-.7-2.4-.7-3.9.3-3.3,1-4.6,1.6-2.4,2.8-3.3c1.2-.9,2.5-1.5,4-2,1.5-.4,3-.7,4.6-.7s3.9.3,5.6.9c1.7.6,3.2,1.7,4.5,3.3l-3.5,3.1v.3Z"/>
      <line class="st1" x1="366.8" y1="753.7" x2="447.1" y2="753.7"/>
      <line class="st1" x1="891.3" y1="753.7" x2="971.6" y2="753.7"/>
      <path class="st10" d="M337.1,632.9v.2c-2.8,3-3.9,7.6-.4,16.1l16.6,41.6,15.7-39.2c4.1-10.2,2.4-15.1-.8-18.5v-.2h15.7v.2c-4.2,4.3-6,7.2-9.5,16.2l-21.5,53.1h-3.9l-21.6-53.6c-3.7-9.4-5.6-12.1-9.4-15.8v-.2h19.1,0Z"/>
      <path class="st10" d="M426.4,701.4c3.6-5.2,4.3-8,4.3-14.8v-38.7c0-6.9-.7-9.7-4.4-14.8v-.2h17.6v.2c-3.7,5.2-4.4,8-4.4,14.8v38.7c0,6.9.8,9.7,4.4,14.8v.2h-17.6v-.2h.1Z"/>
      <path class="st10" d="M528.2,701.6h-16.8v-.2c3.4-4.8,4.1-7.5,4.1-13.9v-51.3l-13.1.4c-3.6,0-10,9.5-14.5,15.6l-1.6-.5,4.2-18.8h58.5l4.2,18.8-1.5.5c-4.6-6.1-10.6-15.5-14.5-15.6l-13.2-.4v51.3c0,6.5.8,9.1,4.1,13.9v.2h.1Z"/>
      <path class="st10" d="M583.9,701.6v-.2c4.4-4.3,6.1-7.2,9.7-16.2l21.4-53.1h3.9l21.5,53.6c3.8,9.4,5.7,12.1,9.5,15.8v.2h-18.8v-.2c2.3-2.4,3.6-7.5,0-16.1l-3.4-8.6h-26.4l-2.5,6.3c-4.1,10.2-1.8,15.7.9,18.5v.2h-15.9v-.2ZM626.3,673.1l-11.8-29.5-11.8,29.5h23.6Z"/>
      <path class="st10" d="M707.9,698.6l19.4-.7c7.3-.3,12.8-6.5,18.3-14.8l1.5.6-5,17.9h-47.7v-.2c4-5.8,4.9-9,4.9-16.7v-36.8c0-6.9-.8-9.7-4.4-14.8v-.2h17.6v.2c-3.7,5.2-4.5,8-4.5,14.8v50.7h0Z"/>
      <path class="st10" d="M789.7,701.4c3.6-5.2,4.3-8,4.3-14.8v-38.7c0-6.9-.7-9.7-4.4-14.8v-.2h17.6v.2c-3.7,5.2-4.4,8-4.4,14.8v38.7c0,6.9.8,9.7,4.4,14.8v.2h-17.6v-.2h.1Z"/>
      <path class="st10" d="M891.5,701.6h-16.8v-.2c3.4-4.8,4.1-7.5,4.1-13.9v-51.3l-13.1.4c-3.6,0-10,9.5-14.5,15.6l-1.5-.5,4.2-18.8h58.5l4.2,18.8-1.5.5c-4.6-6.1-10.6-15.5-14.5-15.6l-13.2-.4v51.3c0,6.5.8,9.1,4.1,13.9v.2Z"/>
      <path class="st10" d="M978,701.4c3.3-4,4.1-6.4,4.1-11.7v-20l-15.5-24.7c-3.8-6.1-6.7-9.5-10.6-11.9v-.2h20.3v.2c-3.4,1.8-3.6,6.4-.7,11l13.4,21.8,10.3-16.4c5.7-9,4.1-13.7,1.1-16.3v-.2h16.5v.2c-4.5,3.4-7.1,6.6-12.9,15.7l-13.4,21.1v19.8c0,5.4.7,7.7,4.1,11.7v.2h-16.8v-.2h.1Z"/>
    </g>
  </g>
</svg>